<svg width="95" height="97" viewBox="0 0 95 97" fill="none" xmlns="http://www.w3.org/2000/svg">
<path d="M65.3125 33.3438C65.3125 32.5398 65.6253 31.7688 66.182 31.2003C66.7388 30.6319 67.4939 30.3125 68.2812 30.3125H80.1562C80.9436 30.3125 81.6987 30.6319 82.2555 31.2003C82.8122 31.7688 83.125 32.5398 83.125 33.3438V39.4062C83.125 40.2102 82.8122 40.9812 82.2555 41.5497C81.6987 42.1181 80.9436 42.4375 80.1562 42.4375H68.2812C67.4939 42.4375 66.7388 42.1181 66.182 41.5497C65.6253 40.9812 65.3125 40.2102 65.3125 39.4062V33.3438Z" fill="black"/>
<path d="M11.875 13C8.72555 13 5.7051 14.2775 3.47811 16.5513C1.25111 18.8252 0 21.9093 0 25.125L0 73.625C0 76.8408 1.25111 79.9248 3.47811 82.1987C5.7051 84.4725 8.72555 85.75 11.875 85.75H83.125C86.2744 85.75 89.2949 84.4725 91.5219 82.1987C93.7489 79.9248 95 76.8408 95 73.625V25.125C95 21.9093 93.7489 18.8252 91.5219 16.5513C89.2949 14.2775 86.2744 13 83.125 13H11.875ZM89.0625 25.125V55.4375H5.9375V25.125C5.9375 23.5171 6.56306 21.9751 7.67655 20.8382C8.79005 19.7012 10.3003 19.0625 11.875 19.0625H83.125C84.6997 19.0625 86.2099 19.7012 87.3234 20.8382C88.4369 21.9751 89.0625 23.5171 89.0625 25.125ZM83.125 79.6875H11.875C10.3003 79.6875 8.79005 79.0488 7.67655 77.9118C6.56306 76.7749 5.9375 75.2329 5.9375 73.625V67.5625H89.0625V73.625C89.0625 75.2329 88.4369 76.7749 87.3234 77.9118C86.2099 79.0488 84.6997 79.6875 83.125 79.6875Z" fill="black"/>
</svg>
