<svg width="104" height="70" viewBox="0 0 104 70" fill="none" xmlns="http://www.w3.org/2000/svg">
<path d="M52 48.5625C55.4478 48.5625 58.7544 47.1007 61.1924 44.4986C63.6304 41.8965 65 38.3674 65 34.6875C65 31.0076 63.6304 27.4785 61.1924 24.8764C58.7544 22.2743 55.4478 20.8125 52 20.8125C48.5522 20.8125 45.2456 22.2743 42.8076 24.8764C40.3696 27.4785 39 31.0076 39 34.6875C39 38.3674 40.3696 41.8965 42.8076 44.4986C45.2456 47.1007 48.5522 48.5625 52 48.5625Z" fill="black"/>
<path d="M0 6.9375C0 5.09756 0.68482 3.33298 1.90381 2.03195C3.12279 0.730913 4.77609 0 6.5 0H97.5C99.2239 0 100.877 0.730913 102.096 2.03195C103.315 3.33298 104 5.09756 104 6.9375V62.4375C104 64.2774 103.315 66.042 102.096 67.3431C100.877 68.6441 99.2239 69.375 97.5 69.375H6.5C4.77609 69.375 3.12279 68.6441 1.90381 67.3431C0.68482 66.042 0 64.2774 0 62.4375V6.9375ZM19.5 6.9375C19.5 10.6174 18.1304 14.1465 15.6924 16.7486C13.2544 19.3507 9.94781 20.8125 6.5 20.8125V48.5625C9.94781 48.5625 13.2544 50.0243 15.6924 52.6264C18.1304 55.2285 19.5 58.7576 19.5 62.4375H84.5C84.5 58.7576 85.8696 55.2285 88.3076 52.6264C90.7456 50.0243 94.0522 48.5625 97.5 48.5625V20.8125C94.0522 20.8125 90.7456 19.3507 88.3076 16.7486C85.8696 14.1465 84.5 10.6174 84.5 6.9375H19.5Z" fill="black"/>
</svg>
