<svg width="61" height="61" viewBox="0 0 61 61" fill="none" xmlns="http://www.w3.org/2000/svg">
<path d="M30.5 0C22.2231 0 21.1823 0.038125 17.9302 0.183C14.6781 0.3355 12.4631 0.846375 10.5225 1.60125C8.48603 2.36499 6.64191 3.56621 5.12019 5.12019C3.56621 6.64191 2.36499 8.48603 1.60125 10.5225C0.846375 12.4593 0.331688 14.6781 0.183 17.9187C0.038125 21.1784 0 22.2154 0 30.5038C0 38.7846 0.038125 39.8216 0.183 43.0736C0.3355 46.3219 0.846375 48.5369 1.60125 50.4775C2.38281 52.4829 3.42363 54.1832 5.12019 55.8798C6.81294 57.5764 8.51331 58.621 10.5187 59.3988C12.4631 60.1536 14.6743 60.6683 17.9226 60.817C21.1784 60.9619 22.2154 61 30.5 61C38.7846 61 39.8178 60.9619 43.0736 60.817C46.3181 60.6645 48.5408 60.1536 50.4813 59.3988C52.5164 58.6345 54.3592 57.4333 55.8798 55.8798C57.5764 54.1832 58.6172 52.4829 59.3988 50.4775C60.1498 48.5369 60.6645 46.3219 60.817 43.0736C60.9619 39.8216 61 38.7846 61 30.5C61 22.2154 60.9619 21.1784 60.817 17.9226C60.6645 14.6781 60.1498 12.4593 59.3988 10.5225C58.635 8.48603 57.4338 6.64191 55.8798 5.12019C54.3581 3.56621 52.514 2.36499 50.4775 1.60125C48.5331 0.846375 46.3143 0.331688 43.0698 0.183C39.8139 0.038125 38.7808 0 30.4924 0H30.5ZM27.7664 5.49763H30.5038C38.6473 5.49763 39.6119 5.52431 42.8258 5.673C45.7996 5.80644 47.4161 6.30587 48.4912 6.72144C49.9132 7.27425 50.9312 7.93762 51.9987 9.00513C53.0662 10.0726 53.7257 11.0868 54.2786 12.5126C54.6979 13.5839 55.1936 15.2004 55.327 18.1742C55.4757 21.3881 55.5062 22.3527 55.5062 30.4924C55.5062 38.6321 55.4757 39.6004 55.327 42.8144C55.1936 45.7881 54.6941 47.4008 54.2786 48.4759C53.7861 49.7985 53.0061 50.9952 51.9949 51.9796C50.9274 53.0471 49.9132 53.7067 48.4874 54.2595C47.4199 54.6789 45.8034 55.1745 42.8258 55.3118C39.6119 55.4566 38.6473 55.4909 30.5038 55.4909C22.3603 55.4909 21.3919 55.4566 18.178 55.3118C15.2043 55.1745 13.5916 54.6789 12.5164 54.2595C11.1929 53.7687 9.99484 52.9899 9.00894 51.9796C7.99586 50.9945 7.2145 49.7964 6.72144 48.4721C6.30587 47.4008 5.80644 45.7843 5.673 42.8106C5.52813 39.5966 5.49763 38.6321 5.49763 30.4847C5.49763 22.3374 5.52813 21.3805 5.673 18.1666C5.81025 15.1928 6.30588 13.5763 6.72525 12.5012C7.27806 11.0791 7.94144 10.0612 9.00894 8.99369C10.0764 7.92619 11.0906 7.26662 12.5164 6.71381C13.5916 6.29444 15.2043 5.79881 18.178 5.66156C20.9916 5.53194 22.082 5.49381 27.7664 5.49V5.49763ZM46.7832 10.5606C46.3025 10.5606 45.8266 10.6553 45.3826 10.8392C44.9385 11.0232 44.535 11.2928 44.1952 11.6326C43.8553 11.9725 43.5857 12.376 43.4018 12.82C43.2179 13.2641 43.1232 13.74 43.1232 14.2206C43.1232 14.7013 43.2179 15.1772 43.4018 15.6212C43.5857 16.0653 43.8553 16.4688 44.1952 16.8086C44.535 17.1485 44.9385 17.4181 45.3826 17.602C45.8266 17.786 46.3025 17.8806 46.7832 17.8806C47.7539 17.8806 48.6848 17.495 49.3712 16.8086C50.0576 16.1223 50.4432 15.1913 50.4432 14.2206C50.4432 13.2499 50.0576 12.319 49.3712 11.6326C48.6848 10.9462 47.7539 10.5606 46.7832 10.5606ZM30.5038 14.8383C28.4263 14.8058 26.363 15.187 24.4342 15.9597C22.5054 16.7323 20.7496 17.8809 19.2689 19.3386C17.7883 20.7963 16.6124 22.534 15.8098 24.4506C15.0072 26.3671 14.5939 28.4241 14.5939 30.5019C14.5939 32.5797 15.0072 34.6367 15.8098 36.5533C16.6124 38.4698 17.7883 40.2075 19.2689 41.6652C20.7496 43.1229 22.5054 44.2715 24.4342 45.0441C26.363 45.8168 28.4263 46.198 30.5038 46.1656C34.6158 46.1014 38.5376 44.4229 41.4227 41.4924C44.3079 38.5619 45.925 34.6143 45.925 30.5019C45.925 26.3895 44.3079 22.4419 41.4227 19.5114C38.5376 16.5809 34.6158 14.9024 30.5038 14.8383ZM30.5038 20.3321C31.8391 20.3321 33.1613 20.5951 34.3949 21.1061C35.6285 21.617 36.7495 22.366 37.6936 23.3102C38.6378 24.2544 39.3868 25.3753 39.8978 26.6089C40.4087 27.8425 40.6717 29.1647 40.6717 30.5C40.6717 31.8353 40.4087 33.1575 39.8978 34.3911C39.3868 35.6247 38.6378 36.7456 37.6936 37.6898C36.7495 38.634 35.6285 39.383 34.3949 39.8939C33.1613 40.4049 31.8391 40.6679 30.5038 40.6679C27.8071 40.6679 25.2209 39.5967 23.314 37.6898C21.4071 35.783 20.3359 33.1967 20.3359 30.5C20.3359 27.8033 21.4071 25.217 23.314 23.3102C25.2209 21.4033 27.8071 20.3321 30.5038 20.3321Z" fill="black"/>
</svg>
