<svg width="262" height="162" viewBox="0 0 262 162" fill="none" xmlns="http://www.w3.org/2000/svg">
<g clip-path="url(#clip0_140_82)">
<path d="M24.7567 114.711C26.3722 114.565 27.9445 114.225 29.4675 113.688C30.9906 113.152 32.3779 112.432 33.6234 111.536C34.869 110.634 35.874 109.485 36.6386 108.084C37.397 106.683 37.7793 105.156 37.7793 103.502C37.7793 101.653 37.3539 100.037 36.4968 98.6614C35.6397 97.2856 34.4805 96.1748 33.0192 95.3228C31.5578 94.4708 29.8807 93.7261 27.9877 93.095C26.0947 92.4639 24.1093 91.9086 22.0313 91.4352C19.9472 90.9619 17.8693 90.4949 15.7852 90.0278C13.7011 89.5671 11.7156 88.9928 9.8288 88.3112C7.93584 87.6296 6.25868 86.8407 4.79734 85.9382C3.33599 85.0358 2.17678 83.8556 1.31971 82.3977C0.462633 80.9399 0.0371777 79.2359 0.0371777 77.2857C0.0371777 75.3356 0.487296 73.5433 1.3937 71.7509C2.3001 69.9649 3.57647 68.3555 5.22896 66.9292C6.88145 65.5029 8.99022 64.3606 11.5615 63.496C14.1327 62.6314 16.9629 62.2022 20.052 62.2022C23.9058 62.2022 27.5314 63.0668 30.9351 64.7961C34.3387 66.5253 37.2244 68.8983 39.6045 71.915L36.1083 74.288C33.7776 70.6149 30.8364 67.8633 27.2786 66.033C23.7208 64.2091 19.9596 63.4644 15.9886 63.8052C13.8244 64.0009 11.8204 64.5121 9.97679 65.3388C8.13315 66.1656 6.61015 67.3205 5.40777 68.8099C4.2054 70.293 3.6073 71.9529 3.6073 73.7768C3.6073 74.9443 3.79844 76.0235 4.18074 77.008C4.56303 77.9926 5.03781 78.8446 5.60509 79.564C6.17852 80.2835 6.96161 80.9525 7.9605 81.571C8.95939 82.1895 9.90896 82.707 10.8154 83.1235C11.7218 83.54 12.881 83.9502 14.293 84.3668C15.705 84.7833 16.9382 85.1115 17.9864 85.3513C19.0347 85.5975 20.3542 85.9004 21.945 86.2664C23.3694 86.582 24.4484 86.8281 25.176 86.9985C25.9036 87.1689 26.9272 87.4277 28.2467 87.7622C29.5662 88.103 30.5836 88.4059 31.2989 88.6773C32.0141 88.9423 32.902 89.3021 33.9749 89.7565C35.0478 90.2046 35.8802 90.6526 36.4721 91.0881C37.0641 91.5236 37.7177 92.0663 38.4329 92.7101C39.1482 93.3538 39.6846 94.0228 40.0546 94.717C40.4245 95.4112 40.7328 96.2064 40.9795 97.1089C41.2323 98.0114 41.3556 98.9707 41.3556 99.9931C41.3556 104.96 39.4318 108.923 35.5781 111.877C31.7243 114.837 26.7668 116.314 20.6995 116.314C16.7779 116.314 12.9303 115.43 9.15671 113.669C5.38927 111.902 2.3371 109.548 0.00634766 106.601L3.53947 104.228C5.8209 107.857 8.9224 110.596 12.8316 112.445C16.7409 114.294 20.7241 115.051 24.7629 114.711H24.7567Z" fill="black"/>
<path d="M82.6992 115.443H47.1274V115.007C49.5075 115.007 50.6976 113.145 50.6976 109.422V69.1444C50.6976 65.3956 49.5075 63.5212 47.1274 63.5212V63.0857C48.1263 63.0857 51.1292 63.0857 56.136 63.0668C61.1428 63.0542 65.8228 63.0479 70.176 63.0479C74.5292 63.0479 77.754 63.0605 79.8443 63.0857V71.6688H79.4188C79.4188 69.7187 78.9317 68.0147 77.9575 66.5568C76.9833 65.099 75.6391 64.3669 73.9249 64.3669H55.5872V87.4087H71.1749C74.8128 87.4087 76.6318 86.1907 76.6318 83.7546H77.0573V92.3377H76.6318C76.6318 89.8763 74.8128 88.652 71.1749 88.652H55.5872V114.212H76.8168C78.5309 114.212 79.869 113.474 80.8309 112.003C81.7928 110.533 82.2737 108.822 82.2737 106.872H82.6992V115.455V115.443Z" fill="black"/>
<path d="M100.926 115.443H88.9019V115.007C91.2819 115.007 92.472 113.145 92.472 109.422V69.1444C92.472 65.3956 91.2819 63.5212 88.9019 63.5212V63.0858H102.603C109.521 63.0858 114.842 64.1902 118.567 66.3928C122.291 68.5953 124.147 71.631 124.147 75.506C124.147 78.9897 122.655 81.8928 119.67 84.2153C116.686 86.5378 112.431 87.9578 106.919 88.469L122.507 109.428C125.263 113.152 127.964 115.013 130.603 115.013V115.449H118.579V115.013C120.601 115.013 120.503 113.442 118.295 110.305C118.104 110.04 117.888 109.744 117.654 109.428L102.171 88.652H97.3555V109.428C97.3555 113.152 98.5455 115.013 100.926 115.013V115.449V115.443ZM101.32 64.3606H97.3616V87.4024H104.107C108.719 87.4024 112.413 86.3169 115.188 84.1522C117.956 81.9875 119.343 79.1033 119.343 75.4997C119.343 73.4044 118.912 71.6247 118.042 70.1479C117.173 68.6774 115.915 67.5225 114.263 66.6957C112.61 65.8689 110.73 65.2694 108.627 64.9097C106.524 64.5499 104.089 64.3606 101.333 64.3606H101.32Z" fill="black"/>
<path d="M170.423 115.443H134.851V115.007C137.231 115.007 138.421 113.145 138.421 109.422V69.1444C138.421 65.3956 137.231 63.5212 134.851 63.5212V63.0857C135.85 63.0857 138.853 63.0857 143.86 63.0668C148.866 63.0542 153.546 63.0479 157.9 63.0479C162.253 63.0479 165.478 63.0605 167.568 63.0857V71.6688H167.142C167.142 69.7187 166.655 68.0147 165.681 66.5568C164.707 65.099 163.363 64.3669 161.649 64.3669H143.311V87.4087H158.899C162.536 87.4087 164.355 86.1907 164.355 83.7546H164.781V92.3377H164.355C164.355 89.8763 162.536 88.652 158.899 88.652H143.311V114.212H164.54C166.255 114.212 167.593 113.474 168.554 112.003C169.516 110.533 169.997 108.822 169.997 106.872H170.423V115.455V115.443Z" fill="black"/>
<path d="M185.018 115.443H176.632V115.007C179.012 115.007 180.202 113.145 180.202 109.422V69.1444C180.202 65.3956 179.012 63.5212 176.632 63.5212V63.0858H185.085L214.127 107.964V69.1507C214.127 65.4019 212.925 63.5275 210.526 63.5275V63.0921H218.912V63.5275C216.532 63.5275 215.342 65.4019 215.342 69.1507V115.449H214.127L181.41 64.9854V109.422C181.41 113.145 182.613 115.007 185.011 115.007V115.443H185.018Z" fill="black"/>
<path d="M231.251 115.443H222.902V115.007C225.35 115.007 227.089 113.158 228.112 109.46L240.031 66.4054L239.106 63.0795H243.959L256.766 109.453C257.789 113.152 259.534 115.001 262.007 115.001V115.436H250.02V115.001C252.301 115.001 252.93 113.139 251.913 109.416L246.524 89.8827H234.753L229.364 109.416C228.34 113.139 228.969 115.001 231.257 115.001V115.436L231.251 115.443ZM246.166 88.6394L240.635 68.5954L235.067 88.6394H246.16H246.166Z" fill="black"/>
<path d="M63.5969 151.435C60.7605 151.435 58.1769 149.958 55.8462 147.011L57.437 145.944C57.9488 146.752 58.3928 147.415 58.7874 147.932C59.182 148.45 59.6198 148.948 60.1192 149.434C60.6187 149.92 61.1428 150.28 61.6854 150.513C62.2342 150.747 62.8261 150.86 63.4612 150.86C64.7499 150.86 65.6255 150.286 66.0818 149.138C66.5381 147.989 66.7724 145.944 66.7724 142.991V129.939C66.7724 128.235 66.2236 127.377 65.1322 127.377V127.175H70.6076V127.377C69.5224 127.377 68.986 128.229 68.986 129.939V143.887C68.986 146.506 68.5112 148.412 67.5554 149.617C66.5997 150.823 65.2802 151.422 63.5907 151.422L63.5969 151.435Z" fill="black"/>
<path d="M92.207 134.666C93.3478 133.865 94.5933 133.461 95.9375 133.461C97.2817 133.461 98.521 133.865 99.6679 134.666C100.809 135.468 101.709 136.56 102.375 137.935C103.035 139.311 103.368 140.813 103.368 142.441C103.368 144.07 103.035 145.578 102.375 146.954C101.715 148.336 100.815 149.428 99.6679 150.229C98.5272 151.031 97.2817 151.435 95.9375 151.435C94.5933 151.435 93.3539 151.031 92.207 150.229C91.0663 149.428 90.1599 148.336 89.494 146.954C88.8281 145.572 88.4951 144.07 88.4951 142.441C88.4951 140.813 88.8281 139.311 89.494 137.935C90.1599 136.56 91.0663 135.474 92.207 134.666ZM93.3231 149.743C94.1247 150.494 94.9941 150.873 95.9375 150.873C96.8809 150.873 97.7503 150.494 98.5519 149.743C99.3535 148.992 99.9886 147.97 100.451 146.676C100.913 145.382 101.148 143.975 101.148 142.441C101.148 140.908 100.913 139.501 100.451 138.207C99.9824 136.913 99.3535 135.897 98.5519 135.146C97.7503 134.395 96.8809 134.022 95.9375 134.022C94.9941 134.022 94.1247 134.395 93.3231 135.146C92.5215 135.897 91.8864 136.913 91.4116 138.207C90.943 139.501 90.7026 140.908 90.7026 142.441C90.7026 143.975 90.9369 145.382 91.4116 146.676C91.8803 147.97 92.5215 148.992 93.3231 149.743Z" fill="black"/>
<path d="M125.072 148.292C125.072 149.99 125.62 150.835 126.712 150.835V151.037H121.236V150.835C122.322 150.835 122.858 149.99 122.858 148.292V136.604C122.858 134.9 122.315 134.041 121.236 134.041V133.858H125.072V148.292ZM125.016 131.599C124.726 131.896 124.381 132.047 123.968 132.047C123.555 132.047 123.209 131.896 122.92 131.599C122.63 131.302 122.488 130.943 122.488 130.532C122.488 130.122 122.636 129.75 122.926 129.453C123.216 129.157 123.567 129.005 123.968 129.005C124.369 129.005 124.714 129.157 125.01 129.453C125.3 129.75 125.448 130.116 125.448 130.532C125.448 130.949 125.306 131.296 125.016 131.599Z" fill="black"/>
<path d="M158.109 148.292C158.109 149.99 158.652 150.835 159.731 150.835V151.037H157.345C156.944 151.037 156.605 150.892 156.321 150.602C156.037 150.311 155.896 149.964 155.896 149.554C154.595 150.804 153.053 151.435 151.265 151.435C149.372 151.435 147.75 150.823 146.419 149.592C145.087 148.361 144.415 146.878 144.415 145.136C144.415 143.394 145.08 141.911 146.419 140.681C147.757 139.45 149.372 138.838 151.265 138.838C151.734 138.838 152.196 138.813 152.665 138.762C153.127 138.712 153.608 138.63 154.095 138.522C154.582 138.409 154.983 138.238 155.298 137.998C155.612 137.759 155.785 137.481 155.816 137.159C155.674 136.048 155.365 135.253 154.891 134.767C154.416 134.281 153.731 134.035 152.843 134.035C151.882 134.035 150.815 134.401 149.649 135.14C148.484 135.878 147.516 136.654 146.751 137.475L145.666 136.111C146.64 135.36 147.794 134.729 149.119 134.224C150.445 133.72 151.69 133.467 152.85 133.467C153.879 133.467 154.749 133.606 155.458 133.877C156.167 134.149 156.71 134.54 157.08 135.051C157.456 135.562 157.721 136.118 157.875 136.711C158.029 137.311 158.109 137.998 158.109 138.775V148.304V148.292ZM155.902 148.86V138.768C155.902 138.402 155.902 138.137 155.883 137.973C155.538 138.503 154.94 138.876 154.095 139.09C153.25 139.299 152.424 139.406 151.61 139.406C150.266 139.406 149.101 139.961 148.108 141.066C147.115 142.176 146.622 143.533 146.622 145.143C146.622 146.752 147.115 148.109 148.108 149.22C149.101 150.33 150.266 150.879 151.61 150.879C152.381 150.879 153.146 150.703 153.916 150.349C154.687 149.996 155.347 149.504 155.896 148.866L155.902 148.86Z" fill="black"/>
<path d="M179.111 137.355C179.111 137.879 179.24 138.327 179.512 138.712C179.783 139.097 180.128 139.406 180.578 139.646C181.022 139.886 181.534 140.094 182.114 140.27C182.693 140.447 183.304 140.611 183.951 140.763C184.599 140.914 185.24 141.066 185.875 141.23C186.516 141.388 187.12 141.596 187.7 141.855C188.28 142.107 188.791 142.41 189.235 142.763C189.679 143.11 190.031 143.565 190.302 144.12C190.567 144.676 190.703 145.313 190.703 146.033C190.703 147.56 190.111 148.847 188.927 149.889C187.743 150.93 186.214 151.454 184.34 151.454C182.921 151.454 181.608 151.163 180.4 150.589C179.191 150.015 178.211 149.226 177.452 148.229L179.012 146.834C179.783 148.096 180.72 149.087 181.824 149.794C182.928 150.501 184.124 150.861 185.412 150.861C186.485 150.861 187.423 150.507 188.23 149.794C189.038 149.087 189.439 148.147 189.439 146.985C189.439 146.197 189.217 145.534 188.779 144.991C188.341 144.448 187.768 144.038 187.065 143.754C186.362 143.47 185.585 143.23 184.734 143.022C183.883 142.82 183.032 142.606 182.175 142.391C181.318 142.176 180.541 141.918 179.838 141.627C179.135 141.337 178.562 140.902 178.124 140.34C177.686 139.772 177.464 139.09 177.464 138.276C177.464 136.957 178.044 135.827 179.203 134.893C180.363 133.959 181.923 133.486 183.883 133.486C185.116 133.486 186.282 133.77 187.373 134.344C188.465 134.912 189.396 135.708 190.154 136.711L188.724 137.86C187.947 136.572 187.028 135.6 185.98 134.931C184.932 134.269 183.791 133.985 182.57 134.086C181.54 134.174 180.708 134.515 180.079 135.102C179.444 135.689 179.129 136.446 179.129 137.38L179.111 137.355Z" fill="black"/>
<path d="M129.307 4.32313L134.968 1.57781L142.959 0.479675L151.184 3.90029L157.986 14.7617V22.6316L149.039 40.0881L129.782 54.9192L109.687 40.5173L101.437 24.039L101.042 15.7399L106.765 4.50616L115.89 0.845719L122.926 1.4579L129.307 4.32313Z" stroke="black" stroke-width="0.94" stroke-miterlimit="10"/>
<path d="M129.307 4.68921L125.787 14.1495L129.511 17.627L134.376 15.1909V10.9183L129.307 4.68921Z" stroke="black" stroke-width="0.94" stroke-miterlimit="10"/>
<path d="M134.789 14.9447L140.635 10.306L130.374 6.00816L129.308 4.3231L135.005 1.70399L136.614 1.49572L135.881 4.14007L132.224 6.63927L140.191 9.99677L142.922 0.567993L135.998 4.08959L135.936 4.12114V4.05172" stroke="black" stroke-width="0.94" stroke-miterlimit="10"/>
<path d="M140.782 10.2808L146.751 9.20162L151.154 3.96972L146.776 9.30891L157.838 15.418L157.887 15.437L157.955 15.4812L148.163 18.0876L146.64 9.32784L140.659 10.3755L141.522 17.6269L148.021 17.9867L148.077 17.993L157.838 22.7011L139.747 32.4454L148.848 18.4537L141.479 17.6774L140.271 22.253L143.68 26.2416L142.558 28.0024L139.451 27.245L140.203 22.2467L141.368 17.7532L136.583 17.4692L129.702 25.3391L139.753 24.8784L139.395 27.0999L139.093 27.9203L129.48 25.4527L139.611 32.5464L129.579 25.3833L129.566 17.6269L134.882 14.951L129.647 25.3328L136.54 17.3871L134.808 14.8879L129.307 17.5323L125.75 14.2316L125.725 17.324L129.462 25.2823L119.565 18.1634L125.645 16.4594L119.411 18.1192L118.893 8.63362L127.513 6.28589L128.432 6.77184L127.538 6.21647L125.676 6.68349L119.294 1.31274" stroke="black" stroke-width="0.94" stroke-miterlimit="10"/>
<path d="M115.397 1.04767L118.899 8.53263L110.594 2.97886L106.851 4.60713L119.312 16.2195V18.1066L110.02 17.5196L113.078 10.6405V10.5711L113.004 10.4386L113.017 10.2808L103.959 10.0473L104.545 8.89867L111.142 8.76614L112.801 10.2303L101.16 15.6642L101.123 16.4152L110.119 17.0147L110.273 16.7939L110.31 16.7371L110.415 16.7244L109.94 17.5954L101.363 20.2713L101.449 23.2438L112.752 23.1239L108.651 18.0876L113.886 25.1371L119.386 24.9226L118.961 18.1823L119.436 24.8531L129.258 25.3328L119.664 33.8149L119.263 25.0109L113.855 25.257L119.528 33.7013L119.664 33.8654L101.449 23.8181L110.68 31.9594L116.254 32.2056L118.862 33.6066L113.374 36.1374L110.84 32.0478L104.619 30.388L105.963 33.0765L112.209 34.4397L113.325 36.251L109.736 40.4289L108.694 38.3463L112.881 35.7145L122.173 46.1026L121.958 49.1635L117.142 45.8754L114.651 37.8603L114.984 37.9487L119.602 33.979L120.034 34.1746L116.211 39.3308L123.555 41.6217L120.188 34.162L119.947 33.7328L129.591 40.6877L129.517 41.0979L123.721 41.7227L127.242 48.9994L125.275 50.5582L122.204 46.1341L125.244 50.6403L125.349 51.7889L128.999 54.3638L127.254 49.1193L127.828 48.6901L129.505 49.6179L129.597 54.6036L129.548 41.1926L129.696 40.6119L129.48 25.4653L132.859 27.832L129.776 40.6119L139.617 32.559L136.861 41.2872L129.696 40.8139L129.616 49.782L136.805 41.3945L129.949 54.8056L140.684 42.8524V46.3929L140.462 39.6842C140.462 39.6842 144.143 36.617 144.204 36.617C144.266 36.617 148.977 40.1512 148.977 40.1512L144.18 36.5413L156.173 26.1974L154.366 27.529L153.071 25.276L139.722 32.4896L136.922 41.2241L140.4 39.6842" stroke="black" stroke-width="0.94" stroke-miterlimit="10"/>
</g>
<defs>
<clipPath id="clip0_140_82">
<rect width="262" height="162" fill="white"/>
</clipPath>
</defs>
</svg>
