<svg width="95" height="73" viewBox="0 0 95 73" fill="none" xmlns="http://www.w3.org/2000/svg">
<path d="M11.875 0C8.72555 0 5.7051 1.27745 3.47811 3.55133C1.25111 5.82521 0 8.90925 0 12.125L0 60.625C0 63.8408 1.25111 66.9248 3.47811 69.1987C5.7051 71.4725 8.72555 72.75 11.875 72.75H83.125C86.2744 72.75 89.2949 71.4725 91.5219 69.1987C93.7489 66.9248 95 63.8408 95 60.625V12.125C95 8.90925 93.7489 5.82521 91.5219 3.55133C89.2949 1.27745 86.2744 0 83.125 0H11.875ZM89.0625 12.125V42.4375H5.9375V12.125C5.9375 10.5171 6.56306 8.9751 7.67655 7.83816C8.79005 6.70123 10.3003 6.0625 11.875 6.0625H83.125C84.6997 6.0625 86.2099 6.70123 87.3234 7.83816C88.4369 8.9751 89.0625 10.5171 89.0625 12.125ZM83.125 66.6875H11.875C10.3003 66.6875 8.79005 66.0488 7.67655 64.9118C6.56306 63.7749 5.9375 62.2329 5.9375 60.625V54.5625H89.0625V60.625C89.0625 62.2329 88.4369 63.7749 87.3234 64.9118C86.2099 66.0488 84.6997 66.6875 83.125 66.6875Z" fill="black"/>
</svg>
