<svg width="61" height="61" viewBox="0 0 61 61" fill="none" xmlns="http://www.w3.org/2000/svg">
<path d="M52.0882 8.86806C49.2795 6.04489 45.9342 3.80677 42.2474 2.28425C38.5607 0.761724 34.6063 -0.0147193 30.6149 0.000211307C13.8904 0.000211307 0.260422 13.565 0.245103 30.218C0.245103 35.5517 1.64679 40.7404 4.29313 45.3345L0 61L16.1002 56.7986C20.5522 59.2166 25.5434 60.4818 30.6149 60.4777H30.6302C47.3585 60.4777 60.9847 46.9129 61 30.2447C61.0034 26.2723 60.2174 22.3385 58.6873 18.6697C57.1571 15.001 54.9169 11.6698 52.0882 8.86806ZM30.6149 55.3613C26.0926 55.3578 21.6542 54.1465 17.7623 51.8538L16.8432 51.3048L7.29181 53.7982L9.84241 44.5224L9.24498 43.5655C6.71661 39.5636 5.37942 34.9303 5.38843 30.2027C5.38843 16.3787 16.713 5.10132 30.6302 5.10132C33.9458 5.0954 37.2297 5.74286 40.2927 7.00639C43.3557 8.26991 46.1372 10.1245 48.4768 12.4632C50.824 14.7932 52.6849 17.5626 53.9521 20.6118C55.2194 23.6609 55.8679 26.9296 55.8605 30.2294C55.8452 44.1031 44.5206 55.3613 30.6149 55.3613ZM44.4594 36.5505C43.7049 36.1731 39.9786 34.3469 39.2777 34.0877C38.5807 33.8398 38.0714 33.7102 37.5735 34.4651C37.0642 35.2162 35.6089 36.928 35.1723 37.4198C34.7357 37.9268 34.2838 37.984 33.5255 37.6104C32.771 37.2291 30.3238 36.4361 27.4285 33.8551C25.169 31.8535 23.6563 29.3754 23.2044 28.6244C22.7678 27.8695 23.1622 27.4654 23.5414 27.0879C23.8746 26.7524 24.2958 26.2034 24.675 25.7688C25.0579 25.3342 25.1843 25.0139 25.4333 24.5107C25.6822 23.9998 25.5635 23.5652 25.3758 23.1878C25.1843 22.8103 23.6716 19.0855 23.032 17.5834C22.4193 16.1003 21.795 16.3062 21.3278 16.2872C20.8912 16.2605 20.3818 16.2605 19.8725 16.2605C19.4879 16.2702 19.1094 16.3589 18.7608 16.5209C18.4122 16.6829 18.101 16.9149 17.8466 17.2022C17.1495 17.957 15.2002 19.7832 15.2002 23.508C15.2002 27.2328 17.9193 30.8127 18.3023 31.3198C18.6776 31.8269 23.6409 39.448 31.2583 42.7267C33.0583 43.5083 34.4753 43.9696 35.5821 44.3204C37.4012 44.8999 39.0441 44.8122 40.3539 44.6254C41.8092 44.4042 44.8385 42.7954 45.4781 41.0302C46.1062 39.2612 46.1062 37.7515 45.9147 37.435C45.727 37.1148 45.2177 36.928 44.4594 36.5505Z" fill="black"/>
</svg>
